<?xml version="1.0" standalone="no"?>
<!DOCTYPE svg PUBLIC "-//W3C//DTD SVG 20010904//EN"
 "http://www.w3.org/TR/2001/REC-SVG-20010904/DTD/svg10.dtd">
<svg version="1.0" xmlns="http://www.w3.org/2000/svg"
 width="524.000000pt" height="476.000000pt" viewBox="0 0 524.000000 476.000000"
 preserveAspectRatio="xMidYMid meet">

<g transform="translate(0.000000,476.000000) scale(0.100000,-0.100000)"
fill="#000000" stroke="none">
<path d="M2480 3189 c-96 -11 -232 -50 -325 -93 -126 -58 -215 -123 -330 -240
-161 -163 -247 -320 -297 -540 -30 -132 -29 -346 2 -476 79 -327 285 -597 570
-744 176 -91 320 -126 514 -126 198 0 339 32 505 116 470 235 713 772 581
1279 -48 183 -139 343 -278 487 -247 257 -585 378 -942 337z m355 -199 c44
-10 102 -28 129 -40 l49 -21 -22 -23 c-11 -12 -19 -25 -15 -28 7 -7 -12 -13
-93 -29 l-62 -11 -60 53 c-33 29 -58 56 -55 61 3 4 0 9 -5 9 -22 3 -27 4 -64
22 -21 10 -53 17 -75 15 -33 -3 -37 -6 -40 -33 -2 -17 8 -51 22 -80 14 -27 24
-49 23 -50 -1 0 -38 -8 -83 -17 -160 -32 -279 -94 -393 -208 -157 -155 -228
-341 -218 -565 15 -325 221 -588 537 -687 64 -20 95 -23 215 -22 123 0 150 4
220 27 216 71 389 232 472 437 70 175 70 385 0 558 l-24 60 39 22 c43 24 47
39 18 65 -18 16 -25 17 -61 6 -23 -7 -44 -9 -48 -4 -74 91 -113 131 -153 161
-26 20 -48 39 -48 43 0 4 35 29 79 57 l78 50 56 -49 c71 -63 155 -175 200
-264 277 -557 -38 -1211 -646 -1340 -88 -19 -286 -19 -374 0 -370 78 -646 353
-729 725 -22 97 -21 279 0 382 43 204 164 403 323 531 228 185 525 253 808
187z m-235 -25 c0 -10 10 -15 29 -15 21 0 48 -18 104 -67 42 -37 74 -69 73
-70 -2 -2 -27 1 -56 7 -29 5 -74 10 -101 10 -46 0 -49 2 -73 43 -14 23 -24 56
-24 75 1 27 5 32 25 32 14 0 23 -6 23 -15z m560 -121 c12 -12 12 -16 -5 -28
-15 -10 -25 -11 -39 -4 -16 8 -18 7 -13 -6 4 -11 -7 -25 -38 -46 -24 -16 -49
-30 -55 -30 -6 0 -32 11 -58 24 -26 13 -66 30 -90 37 -54 16 -44 22 71 45 81
15 88 19 83 38 -11 42 12 47 72 15 31 -17 64 -37 72 -45z m-477 -211 l-18 -68
-128 -3 c-104 -2 -127 -5 -127 -17 0 -10 -11 -15 -35 -15 -33 0 -34 1 -25 26
46 121 136 234 201 252 33 9 36 7 92 -49 l58 -59 -18 -67z m14 155 c42 -25 93
-88 127 -155 36 -72 31 -79 -57 -75 -39 2 -73 5 -74 6 -2 1 6 33 16 71 l19 68
-56 60 c-46 48 -52 58 -32 52 14 -4 40 -16 57 -27z m-240 -31 c-43 -44 -93
-129 -133 -225 -1 -3 -212 18 -243 24 l-24 5 34 36 c79 82 224 166 339 197 82
22 83 21 27 -37z m348 38 c66 -17 185 -70 185 -81 0 -4 -9 -17 -20 -29 l-20
-21 45 -53 c43 -51 61 -87 31 -62 -10 9 -21 9 -33 3 -62 -34 -109 -8 -155 85
-18 37 -56 91 -84 120 -60 61 -54 65 51 38z m254 -122 c20 -15 56 -45 79 -67
38 -35 41 -41 25 -47 -10 -4 -34 -8 -53 -8 -30 0 -41 8 -82 57 -44 53 -46 58
-31 74 20 23 20 23 62 -9z m-389 -138 c0 -11 -12 -15 -50 -15 -38 0 -50 4 -50
15 0 11 12 15 50 15 38 0 50 -4 50 -15z m-412 -12 c52 -5 62 -9 57 -22 -11
-36 -43 -200 -50 -253 -6 -53 -9 -58 -31 -58 -22 0 -24 -4 -24 -50 l0 -50
-165 0 c-192 0 -177 -15 -146 138 21 99 60 192 112 268 l32 47 76 -7 c42 -4
104 -9 139 -13z m957 -5 c15 -22 14 -23 -26 -37 -41 -13 -42 -13 -65 15 -13
16 -23 32 -24 37 0 4 22 7 49 7 40 0 53 -4 66 -22z m-112 -32 l37 -45 48 14
c60 19 59 19 72 -5 9 -17 5 -23 -30 -45 l-41 -26 20 -33 c29 -46 26 -51 -15
-27 -19 12 -39 19 -44 16 -4 -2 -27 -36 -50 -75 -30 -50 -46 -68 -54 -60 -10
10 -6 32 28 143 l15 47 -75 63 c-51 43 -70 63 -58 65 9 2 21 -1 27 -7 16 -16
44 -14 51 4 9 26 30 17 69 -29z m-693 -137 l0 -159 -66 0 -67 0 7 78 c6 65 39
223 51 242 2 3 20 4 39 2 l36 -4 0 -159z m487 82 c12 -46 25 -119 29 -162 l7
-79 -57 0 -57 0 2 159 c1 140 3 160 17 164 31 8 37 1 59 -82z m78 25 c33 -27
66 -55 73 -61 11 -10 8 -29 -15 -109 -26 -90 -30 -96 -55 -96 -25 0 -27 3 -33
58 -7 55 -39 217 -51 256 -8 24 3 17 81 -48z m-305 24 c0 -29 -1 -30 -50 -30
-49 0 -50 1 -50 30 0 29 1 30 50 30 49 0 50 -1 50 -30z m667 3 c2 -5 -8 -18
-23 -28 -26 -17 -28 -17 -41 1 -13 17 -11 20 14 31 31 13 45 12 50 -4z m-28
-139 c19 -48 51 -202 51 -240 0 -11 -32 -14 -165 -14 l-165 0 0 39 c0 32 3 38
18 35 12 -3 28 14 61 68 24 40 45 74 47 76 1 2 25 -9 53 -24 29 -14 55 -23 59
-20 4 4 -6 31 -21 59 -15 29 -23 53 -19 55 5 1 18 9 28 16 25 19 29 15 53 -50z
m-841 -211 l3 -43 -50 0 -51 0 0 46 0 45 48 -3 47 -3 3 -42z m412 2 l0 -45
-50 0 -50 0 0 45 0 45 50 0 50 0 0 -45z m-670 -185 l0 -129 -87 -3 -88 -3 -3
-32 c-3 -31 -1 -33 27 -33 29 0 31 -2 31 -40 0 -38 -2 -40 -30 -40 -22 0 -30
-5 -30 -17 0 -13 -6 -10 -21 12 -65 96 -109 220 -124 353 l-7 62 166 0 166 0
0 -130z m233 123 c-13 -2 -35 -2 -50 0 -16 2 -5 4 22 4 28 0 40 -2 28 -4z
m415 0 c-16 -2 -40 -2 -55 0 -16 2 -3 4 27 4 30 0 43 -2 28 -4z m497 -55 c-10
-90 -40 -198 -69 -255 -42 -81 -75 -130 -76 -110 0 12 -8 17 -30 17 -28 0 -30
2 -30 40 0 38 2 40 31 40 28 0 30 2 27 33 l-3 32 -87 3 -88 3 0 129 0 130 166
0 166 0 -7 -62z m-1125 -308 c0 -36 -2 -40 -25 -40 -22 0 -25 4 -25 40 0 36 3
40 25 40 23 0 25 -4 25 -40z m278 3 l-3 -38 -84 -3 c-46 -2 -87 1 -92 5 -4 4
-10 23 -14 41 l-7 32 102 0 101 0 -3 -37z m137 -3 c-1 -31 -4 -35 -28 -38 -26
-3 -27 -1 -27 38 0 39 1 41 28 38 24 -3 27 -7 27 -38z m250 8 c-4 -18 -9 -36
-12 -40 -2 -5 -38 -8 -79 -8 l-74 0 0 40 0 40 86 0 86 0 -7 -32z m165 -8 c0
-36 -2 -40 -25 -40 -22 0 -25 4 -25 40 0 36 3 40 25 40 23 0 25 -4 25 -40z
m-135 -2 c-1 -17 -7 -34 -15 -36 -9 -3 -11 2 -7 19 4 13 7 30 7 37 0 6 4 12 8
12 5 0 8 -14 7 -32z m-554 -179 c24 -46 64 -103 91 -130 l49 -49 -33 6 c-59
11 -168 52 -225 85 -61 35 -193 144 -193 159 0 6 56 10 134 10 l135 0 42 -81z
m489 76 c0 -17 -68 -136 -98 -174 -35 -43 -117 -91 -157 -91 -37 0 -121 47
-153 86 -29 34 -102 163 -102 178 0 3 115 6 255 6 140 0 255 -2 255 -5z m310
-15 c-16 -30 -122 -114 -192 -154 -72 -40 -161 -71 -232 -82 l-50 -7 50 50
c29 29 69 85 93 132 l42 81 150 0 c146 0 149 0 139 -20z"/>
<path d="M2455 2950 c-19 -8 -19 -9 3 -9 12 -1 22 4 22 9 0 6 -1 10 -2 9 -2 0
-12 -4 -23 -9z"/>
<path d="M2750 2950 c0 -5 10 -10 23 -10 18 0 19 2 7 10 -19 13 -30 13 -30 0z"/>
<path d="M2375 2930 c-3 -5 1 -10 9 -10 8 0 18 5 21 10 3 6 -1 10 -9 10 -8 0
-18 -4 -21 -10z"/>
<path d="M2825 2930 c3 -5 13 -10 21 -10 8 0 14 5 14 10 0 6 -9 10 -21 10 -11
0 -17 -4 -14 -10z"/>
<path d="M2310 2910 c-13 -8 -13 -10 2 -10 9 0 20 5 23 10 8 13 -5 13 -25 0z"/>
<path d="M2900 2910 c0 -5 7 -10 16 -10 8 0 12 5 9 10 -3 6 -10 10 -16 10 -5
0 -9 -4 -9 -10z"/>
<path d="M2240 2880 c-13 -8 -13 -10 2 -10 9 0 20 5 23 10 8 13 -5 13 -25 0z"/>
<path d="M2165 2840 c-3 -5 -2 -10 4 -10 5 0 13 5 16 10 3 6 2 10 -4 10 -5 0
-13 -4 -16 -10z"/>
<path d="M2110 2805 c-8 -9 -8 -15 -2 -15 12 0 26 19 19 26 -2 2 -10 -2 -17
-11z"/>
<path d="M2045 2759 c-11 -17 1 -21 15 -4 8 9 8 15 2 15 -6 0 -14 -5 -17 -11z"/>
<path d="M3170 2755 c7 -8 17 -15 22 -15 6 0 5 7 -2 15 -7 8 -17 15 -22 15 -6
0 -5 -7 2 -15z"/>
<path d="M1990 2705 c-8 -9 -8 -15 -2 -15 12 0 26 19 19 26 -2 2 -10 -2 -17
-11z"/>
<path d="M3220 2711 c0 -5 7 -12 16 -15 14 -5 15 -4 4 9 -14 17 -20 19 -20 6z"/>
<path d="M1935 2649 c-11 -17 1 -21 15 -4 8 9 8 15 2 15 -6 0 -14 -5 -17 -11z"/>
<path d="M3280 2645 c7 -9 15 -13 17 -11 7 7 -7 26 -19 26 -6 0 -6 -6 2 -15z"/>
<path d="M1890 2585 c-7 -9 -8 -15 -2 -15 5 0 12 7 16 15 3 8 4 15 2 15 -2 0
-9 -7 -16 -15z"/>
<path d="M3326 2585 c4 -8 10 -15 15 -15 4 0 6 7 3 15 -4 8 -10 15 -15 15 -4
0 -6 -7 -3 -15z"/>
<path d="M1851 2526 c-7 -8 -8 -17 -3 -20 6 -3 13 1 16 10 9 23 2 28 -13 10z"/>
<path d="M3366 2525 c4 -8 11 -15 16 -15 6 0 5 6 -2 15 -7 8 -14 15 -16 15 -2
0 -1 -7 2 -15z"/>
<path d="M1817 2464 c-4 -4 -7 -14 -7 -23 0 -11 3 -12 11 -4 6 6 10 16 7 23
-2 6 -7 8 -11 4z"/>
<path d="M3400 2461 c0 -5 5 -13 10 -16 6 -3 10 -2 10 4 0 5 -4 13 -10 16 -5
3 -10 2 -10 -4z"/>
<path d="M1786 2384 c-4 -9 -4 -19 -1 -22 2 -3 7 3 11 12 4 9 4 19 1 22 -2 3
-7 -3 -11 -12z"/>
<path d="M3430 2386 c0 -8 5 -18 10 -21 6 -3 10 1 10 9 0 8 -4 18 -10 21 -5 3
-10 -1 -10 -9z"/>
<path d="M1767 2324 c-4 -4 -7 -14 -7 -23 0 -11 3 -12 11 -4 6 6 10 16 7 23
-2 6 -7 8 -11 4z"/>
<path d="M3450 2323 c0 -5 5 -15 10 -23 8 -12 10 -11 10 8 0 12 -4 22 -10 22
-5 0 -10 -3 -10 -7z"/>
<path d="M1747 2240 c-3 -11 -1 -20 4 -20 5 0 9 9 9 20 0 11 -2 20 -4 20 -2 0
-6 -9 -9 -20z"/>
<path d="M3470 2243 c0 -13 5 -23 10 -23 13 0 13 11 0 30 -8 12 -10 11 -10 -7z"/>
<path d="M1742 2160 c0 -14 2 -19 5 -12 2 6 2 18 0 25 -3 6 -5 1 -5 -13z"/>
<path d="M3480 2161 c0 -12 5 -21 10 -21 6 0 10 6 10 14 0 8 -4 18 -10 21 -5
3 -10 -3 -10 -14z"/>
<path d="M1730 2085 c0 -8 5 -15 10 -15 6 0 10 7 10 15 0 8 -4 15 -10 15 -5 0
-10 -7 -10 -15z"/>
<path d="M3492 2080 c0 -14 2 -19 5 -12 2 6 2 18 0 25 -3 6 -5 1 -5 -13z"/>
<path d="M1742 2010 c0 -14 2 -19 5 -12 2 6 2 18 0 25 -3 6 -5 1 -5 -13z"/>
<path d="M3487 2024 c-4 -4 -7 -14 -7 -23 0 -11 3 -12 11 -4 6 6 10 16 7 23
-2 6 -7 8 -11 4z"/>
<path d="M1747 1930 c3 -11 7 -20 9 -20 2 0 4 9 4 20 0 11 -4 20 -9 20 -5 0
-7 -9 -4 -20z"/>
<path d="M3470 1928 c0 -19 2 -20 10 -8 13 19 13 30 0 30 -5 0 -10 -10 -10
-22z"/>
<path d="M1760 1866 c0 -8 5 -18 10 -21 6 -3 10 1 10 9 0 8 -4 18 -10 21 -5 3
-10 -1 -10 -9z"/>
<path d="M3457 1866 c-4 -10 -5 -21 -2 -24 9 -9 17 6 13 25 -3 17 -4 17 -11
-1z"/>
<path d="M1786 1785 c4 -8 8 -15 10 -15 2 0 4 7 4 15 0 8 -4 15 -10 15 -5 0
-7 -7 -4 -15z"/>
<path d="M3437 1793 c-4 -3 -7 -11 -7 -17 0 -6 5 -5 12 2 6 6 9 14 7 17 -3 3
-9 2 -12 -2z"/>
<path d="M1816 1715 c4 -8 11 -15 16 -15 6 0 5 6 -2 15 -7 8 -14 15 -16 15 -2
0 -1 -7 2 -15z"/>
<path d="M3407 1723 c-4 -3 -7 -11 -7 -17 0 -6 5 -5 12 2 6 6 9 14 7 17 -3 3
-9 2 -12 -2z"/>
<path d="M1850 1651 c0 -5 5 -13 10 -16 6 -3 10 -2 10 4 0 5 -4 13 -10 16 -5
3 -10 2 -10 -4z"/>
<path d="M3366 1645 c-3 -8 -1 -15 3 -15 5 0 11 7 15 15 3 8 1 15 -3 15 -5 0
-11 -7 -15 -15z"/>
<path d="M1892 1580 c7 -10 14 -18 15 -16 6 6 -9 36 -18 36 -5 0 -4 -9 3 -20z"/>
<path d="M3326 1584 c-10 -25 1 -29 14 -5 6 12 7 21 1 21 -5 0 -12 -7 -15 -16z"/>
<path d="M1930 1532 c0 -5 7 -15 15 -22 8 -7 15 -8 15 -2 0 5 -7 15 -15 22 -8
7 -15 8 -15 2z"/>
<path d="M3280 1525 c-7 -9 -11 -18 -8 -20 3 -3 11 1 18 10 7 9 11 18 8 20 -3
3 -11 -1 -18 -10z"/>
<path d="M1990 1465 c7 -9 15 -13 17 -11 7 7 -7 26 -19 26 -6 0 -6 -6 2 -15z"/>
<path d="M3230 1465 c-11 -13 -10 -14 4 -9 9 3 16 10 16 15 0 13 -6 11 -20 -6z"/>
<path d="M2040 1422 c0 -12 19 -26 26 -19 2 2 -2 10 -11 17 -9 8 -15 8 -15 2z"/>
<path d="M3170 1415 c-7 -8 -8 -15 -2 -15 5 0 15 7 22 15 7 8 8 15 2 15 -5 0
-15 -7 -22 -15z"/>
<path d="M2100 1371 c0 -5 7 -11 15 -15 8 -3 15 -1 15 3 0 5 -7 11 -15 15 -8
3 -15 1 -15 -3z"/>
<path d="M3110 1370 c-8 -5 -11 -12 -7 -16 4 -4 15 0 24 9 18 18 8 23 -17 7z"/>
<path d="M2170 1325 c7 -8 17 -15 22 -15 6 0 5 7 -2 15 -7 8 -17 15 -22 15 -6
0 -5 -7 2 -15z"/>
<path d="M3050 1330 c-8 -5 -12 -11 -9 -14 2 -3 11 -1 19 4 8 5 12 11 9 14 -2
3 -11 1 -19 -4z"/>
<path d="M2235 1290 c3 -5 14 -10 23 -10 15 0 15 2 2 10 -20 13 -33 13 -25 0z"/>
<path d="M2975 1290 c-3 -5 -2 -10 4 -10 5 0 13 5 16 10 3 6 2 10 -4 10 -5 0
-13 -4 -16 -10z"/>
<path d="M2305 1260 c3 -5 13 -10 21 -10 8 0 12 5 9 10 -3 6 -13 10 -21 10 -8
0 -12 -4 -9 -10z"/>
<path d="M2900 1260 c0 -5 4 -10 9 -10 6 0 13 5 16 10 3 6 -1 10 -9 10 -9 0
-16 -4 -16 -10z"/>
<path d="M2375 1240 c3 -5 14 -10 23 -10 15 0 15 2 2 10 -20 13 -33 13 -25 0z"/>
<path d="M2830 1240 c-12 -8 -11 -10 8 -10 12 0 22 5 22 10 0 13 -11 13 -30 0z"/>
<path d="M2450 1220 c19 -13 30 -13 30 0 0 6 -10 10 -22 10 -19 0 -20 -2 -8
-10z"/>
<path d="M2750 1220 c0 -13 11 -13 30 0 12 8 11 10 -7 10 -13 0 -23 -4 -23
-10z"/>
<path d="M2530 1210 c19 -13 30 -13 30 0 0 6 -10 10 -22 10 -19 0 -20 -2 -8
-10z"/>
<path d="M2600 1210 c0 -5 9 -10 21 -10 11 0 17 5 14 10 -3 6 -13 10 -21 10
-8 0 -14 -4 -14 -10z"/>
<path d="M2678 1208 c9 -9 15 -9 24 0 9 9 7 12 -12 12 -19 0 -21 -3 -12 -12z"/>
<path d="M3040 2852 c0 -12 19 -26 26 -19 2 2 -2 10 -11 17 -9 8 -15 8 -15 2z"/>
<path d="M2931 2610 c-20 -12 -8 -45 17 -48 18 -3 22 1 22 21 0 27 -19 40 -39
27z"/>
</g>
</svg>
